<svg xmlns="http://www.w3.org/2000/svg" viewBox="0 0 1600 900">
  <defs>
    <linearGradient id="bg" x1="0" y1="0" x2="1" y2="1">
      <stop offset="0" stop-color="#2b1c12"/>
      <stop offset="1" stop-color="#5a3522"/>
    </linearGradient>
  </defs>
  <rect width="1600" height="900" fill="url(#bg)"/>
  <g fill="#ffd08a" fill-opacity=".17">
    <polygon points="100,900 300,440 460,900"/>
    <polygon points="350,900 610,390 790,900"/>
    <polygon points="680,900 940,350 1140,900"/>
    <polygon points="1060,900 1320,430 1500,900"/>
  </g>
  <g stroke="#ffd08a" stroke-opacity=".26" stroke-width="4" fill="none">
    <path d="M0 620 C250 590 430 640 620 610 C800 580 980 640 1200 610 C1360 590 1500 620 1600 610"/>
    <path d="M0 680 C220 650 460 700 680 670 C920 640 1180 700 1400 670 C1500 660 1560 665 1600 668"/>
  </g>
</svg>
