<svg xmlns="http://www.w3.org/2000/svg" viewBox="0 0 1600 900">
  <defs>
    <linearGradient id="bg" x1="0" y1="0" x2="1" y2="1">
      <stop offset="0" stop-color="#0d2235"/>
      <stop offset="1" stop-color="#1d3a56"/>
    </linearGradient>
    <linearGradient id="line" x1="0" y1="0" x2="1" y2="0">
      <stop offset="0" stop-color="#66d3ff" stop-opacity=".15"/>
      <stop offset="1" stop-color="#66d3ff" stop-opacity=".55"/>
    </linearGradient>
  </defs>
  <rect width="1600" height="900" fill="url(#bg)"/>
  <g opacity=".7">
    <rect x="0" y="640" width="1600" height="260" fill="#0b1824"/>
    <path d="M0 680 L240 640 L500 660 L760 610 L1030 640 L1320 600 L1600 630 L1600 900 L0 900 Z" fill="#152d43"/>
    <path d="M0 740 L300 690 L550 715 L840 675 L1110 700 L1370 660 L1600 690 L1600 900 L0 900 Z" fill="#1f425f"/>
  </g>
  <g>
    <rect x="130" y="220" width="410" height="18" fill="url(#line)"/>
    <rect x="380" y="190" width="470" height="14" fill="url(#line)"/>
    <rect x="740" y="250" width="520" height="20" fill="url(#line)"/>
    <rect x="1120" y="210" width="350" height="16" fill="url(#line)"/>
  </g>
</svg>
