<svg xmlns="http://www.w3.org/2000/svg" viewBox="0 0 1600 900">
  <defs>
    <linearGradient id="sky" x1="0" y1="0" x2="0" y2="1">
      <stop offset="0" stop-color="#6ec8ff"/>
      <stop offset="0.55" stop-color="#b4e6ff"/>
      <stop offset="1" stop-color="#d8f2ff"/>
    </linearGradient>
    <linearGradient id="hillA" x1="0" y1="0" x2="1" y2="1">
      <stop offset="0" stop-color="#5fa06f"/>
      <stop offset="1" stop-color="#2f5a3f"/>
    </linearGradient>
    <linearGradient id="hillB" x1="0" y1="0" x2="1" y2="1">
      <stop offset="0" stop-color="#86b67d"/>
      <stop offset="1" stop-color="#3f6f49"/>
    </linearGradient>
    <linearGradient id="water" x1="0" y1="0" x2="0" y2="1">
      <stop offset="0" stop-color="#7fcfff"/>
      <stop offset="1" stop-color="#3d7bab"/>
    </linearGradient>
  </defs>
  <rect width="1600" height="900" fill="url(#sky)"/>
  <circle cx="1260" cy="170" r="66" fill="#fff8c7" fill-opacity=".8"/>
  <path d="M0 520 C220 430 460 470 700 420 C930 370 1170 430 1600 350 L1600 900 L0 900 Z" fill="url(#hillB)"/>
  <path d="M0 610 C260 520 540 580 840 510 C1070 460 1320 520 1600 470 L1600 900 L0 900 Z" fill="url(#hillA)"/>
  <path d="M0 690 C300 640 620 700 940 650 C1170 610 1390 640 1600 620 L1600 900 L0 900 Z" fill="url(#water)" fill-opacity=".92"/>
  <g stroke="#d8f4ff" stroke-opacity=".55" stroke-width="3">
    <path d="M20 740 C280 700 540 740 820 710 C1080 680 1300 710 1580 690"/>
    <path d="M0 790 C240 760 500 790 760 760 C1040 730 1280 760 1600 740"/>
  </g>
  <g fill="#f6fbff" fill-opacity=".72">
    <circle cx="170" cy="160" r="22"/>
    <circle cx="200" cy="155" r="28"/>
    <circle cx="236" cy="166" r="20"/>
    <circle cx="390" cy="120" r="16"/>
    <circle cx="413" cy="116" r="20"/>
    <circle cx="438" cy="126" r="14"/>
  </g>
</svg>
